<svg xmlns="http://www.w3.org/2000/svg" viewBox="0 0 256 256" width="256" height="256" fill="none" stroke="currentColor" stroke-width="1.5" stroke-linecap="round" stroke-linejoin="round">
  <!-- Style: stroke-only, no fill, rounded caps and joins, 24x24 grid -->
<path d="M230.738,238.655H17.405v-41.352h213.333V238.655z M205.595,172.032H43.25v25.271h162.345V172.032z M17.405,197.303L43.25,17.345
	 M230.738,197.303L205.595,17.345 M205.595,17.345H43.25v10.721h162.345V17.345z M143.393,70.008h-36.865v50.288h36.865V70.008z
	 M124.961,120.296v19.853 M122.497,68.543c1.582-6.545,7.382-11.334,13.607-13.901c9.622-3.968,20.484-3.671,30.754-1.982
	c10.27,1.689,20.307,4.696,30.636,5.978c10.328,1.281,21.297,0.693,30.381-4.387c4.268-2.387,8.122-5.889,9.853-10.462
	c1.731-4.574,0.908-10.297-2.802-13.483 M143.393,100.555h69.276V79.546h-69.276V100.555z M106.528,79.546H35.26v21.008h71.268
	V79.546z"/>
</svg>
